<?xml version="1.0" encoding="UTF-8" standalone="no"?>
<svg xmlns="http://www.w3.org/2000/svg" version="1.1" width="100" height="100" viewBox="-50 -50 100 100">
  
          <!-- Left wing -->
          <g class="wing-left">
            <path d="
              M-28,-8
              C-32,-4 -32,8 -28,12
              C-24,16 -20,16 -16,12
              C-20,8 -20,-4 -16,-8
              C-20,-12 -24,-12 -28,-8
              Z" 
              fill="inherit"
            />
            <path d="
              M-28,-6
              C-30,-2 -30,8 -28,10
              C-26,12 -24,12 -22,10
              Z" 
              fill="rgba(0,0,0,0.15)"
            />
          </g>

          <!-- Right wing -->
          <g class="wing-right">
            <path d="
              M28,-8
              C32,-4 32,8 28,12
              C24,16 20,16 16,12
              C20,8 20,-4 16,-8
              C20,-12 24,-12 28,-8
              Z" 
              fill="inherit"
            />
            <path d="
              M28,-6
              C30,-2 30,8 28,10
              C26,12 24,12 22,10
              Z" 
              fill="rgba(0,0,0,0.15)"
            />
          </g>
        
</svg>